<svg xmlns="http://www.w3.org/2000/svg" viewBox="0 0 500 500"><g transform="matrix(0.23661, 0, 0, -0.23661, -38.707706, 497.313263)" fill="#000000" stroke="none"><path d="M1427 1964 c-4 -4 -7 -23 -7 -43 0 -20 -5 -43 -10 -51 -9 -13 -11
-13 -20 0 -5 8 -10 29 -10 47 0 29 -15 52 -26 40 -3 -2 -6 -21 -8 -41 -5 -69
-52 -77 -58 -9 -2 26 -8 38 -18 38 -12 0 -14 -11 -12 -56 5 -75 -12 -85 -39
-24 -11 25 -26 44 -32 42 -7 -3 -10 -11 -9 -18 20 -80 5 -109 -22 -44 -8 19
-20 35 -25 35 -14 0 -14 -47 -1 -55 13 -8 13 -55 0 -55 -5 0 -16 13 -25 29
-17 34 -31 45 -45 36 -7 -4 -3 -19 11 -41 27 -44 19 -53 -20 -25 -19 14 -32
18 -36 11 -9 -15 10 -42 89 -127 52 -56 66 -77 61 -93 -3 -11 -14 -20 -24 -20
-24 0 -41 -20 -41 -50 0 -19 -10 -31 -45 -52 -44 -27 -94 -85 -123 -145 -18
-38 -22 -39 -69 -16 -28 13 -42 14 -64 6 -23 -9 -31 -8 -48 11 -11 11 -29 46
-41 76 -31 79 -35 82 -135 85 -102 3 -114 -8 -63 -57 29 -28 38 -48 57 -128
13 -52 29 -106 36 -121 13 -25 86 -97 117 -115 8 -5 21 -22 29 -39 17 -36 70
-64 121 -65 32 0 40 -5 64 -44 15 -24 39 -51 53 -60 54 -33 54 -32 43 -53 -28
-52 8 -79 158 -115 74 -17 104 -19 238 -13 85 3 181 12 215 20 34 7 87 19 117
25 30 7 61 17 67 22 15 12 7 55 -13 79 -19 22 -19 23 26 53 22 14 50 45 62 69
20 38 23 57 23 192 1 136 3 153 23 185 24 39 27 62 12 90 -24 45 101 61 147
18 50 -45 65 -117 41 -185 -9 -24 -16 -32 -28 -27 -76 34 -98 36 -137 18 -55
-27 -57 -62 -4 -98 27 -19 46 -26 60 -21 24 7 26 2 10 -26 -8 -16 -19 -20 -47
-17 -35 3 -37 1 -40 -28 -2 -25 4 -37 33 -63 44 -38 81 -40 134 -6 37 23 73
87 57 102 -3 3 6 20 19 37 63 82 88 206 61 296 -30 97 -58 130 -140 164 -67
28 -128 20 -232 -30 -28 -14 -57 -22 -65 -19 -8 3 -31 -4 -53 -14 -49 -25 -81
-15 -89 28 -4 17 -13 31 -20 31 -9 0 -17 15 -20 37 -6 33 -2 41 52 102 62 71
76 97 60 107 -6 4 0 18 17 35 22 23 25 32 16 41 -9 9 -19 5 -45 -20 -41 -40
-55 -41 -26 -3 23 31 19 51 -10 51 -21 0 -37 -17 -42 -43 -2 -10 -8 -17 -14
-15 -12 4 -7 48 7 66 6 7 8 15 5 18 -13 13 -39 -7 -53 -41 -8 -19 -19 -35 -24
-35 -15 0 -12 32 5 54 18 24 20 59 3 54 -7 -3 -23 -23 -36 -46 -13 -23 -28
-42 -33 -42 -12 0 -12 27 1 35 13 8 13 52 0 60 -17 11 -39 -14 -42 -48 -2 -20
-8 -32 -18 -32 -11 0 -15 12 -15 44 0 41 -12 60 -28 45z m-32 -134 c12 0 25 3
28 6 14 14 76 11 82 -4 3 -9 13 -12 29 -8 14 3 28 2 31 -4 3 -5 15 -10 26 -10
10 0 28 -4 39 -10 11 -5 29 -14 40 -20 11 -5 27 -10 35 -10 23 0 19 -8 -32
-69 -26 -31 -48 -58 -50 -60 -1 -2 -17 10 -35 28 -32 31 -108 61 -156 61 -14
0 -48 -7 -76 -15 -28 -8 -63 -17 -77 -19 -14 -3 -41 -21 -60 -40 l-34 -35 -37
36 -37 36 27 38 c15 21 35 39 45 39 10 0 20 7 23 15 4 9 19 15 35 15 17 0 32
6 35 15 4 8 19 15 34 15 16 0 32 5 36 11 4 8 9 8 17 0 6 -6 21 -11 32 -11z
m87 -144 c94 -29 117 -54 98 -110 -10 -32 -13 -33 -78 -40 -86 -8 -173 -8
-250 0 l-61 7 20 38 c22 44 45 61 126 95 68 28 82 29 145 10z m125 -138 c-3
-8 -6 -5 -6 6 -1 11 2 17 5 13 3 -3 4 -12 1 -19z m463 -32 c16 -20 9 -60 -11
-64 -10 -2 -18 6 -21 20 -3 13 -9 31 -13 41 -5 13 -2 17 13 17 11 0 25 -7 32
-14z m-63 -50 c-2 -4 -20 -14 -41 -21 -34 -12 -40 -11 -58 7 -11 11 -18 21
-16 23 2 1 21 12 43 24 l40 21 17 -22 c10 -13 16 -27 15 -32z m-832 15 c0 -28
-5 -29 -32 -9 -16 12 -5 38 16 38 11 0 16 -9 16 -29z m101 23 c16 -4 20 -11
16 -30 -4 -20 -10 -24 -30 -22 -19 2 -26 10 -29 31 -4 28 3 32 43 21z m229
-24 c0 -26 -4 -30 -27 -30 -23 0 -27 4 -25 23 2 18 17 30 47 36 3 1 5 -12 5
-29z m90 5 c0 -19 -5 -25 -22 -25 -17 0 -21 4 -16 18 6 16 22 32 33 32 3 0 5
-11 5 -25z m65 6 c0 -11 -4 -22 -9 -25 -5 -3 -8 6 -8 19 0 14 3 25 8 25 5 0 9
-9 9 -19z m478 -13 c-4 -46 -28 -49 -28 -4 0 26 4 36 16 36 11 0 14 -8 12 -32z
m-743 -3 c0 -20 -5 -25 -26 -25 -23 0 -26 3 -21 25 3 17 11 25 26 25 16 0 21
-6 21 -25z m805 -34 c0 -9 -7 -25 -15 -35 -23 -30 -36 -8 -22 36 9 28 15 34
24 26 7 -6 13 -18 13 -27z m-295 -39 c33 -43 34 -46 19 -73 -8 -16 -18 -29
-22 -29 -4 0 -18 17 -30 38 -13 20 -41 51 -62 67 -40 32 -41 42 -6 54 30 12
61 -5 101 -57z m-670 17 c44 -6 107 -7 140 -4 33 3 107 6 165 6 58 1 114 5
125 9 12 5 35 2 55 -7 44 -18 126 -96 150 -143 22 -42 35 -194 23 -260 l-8
-44 -46 3 c-39 2 -52 -3 -89 -31 -35 -26 -47 -44 -58 -83 -8 -28 -16 -56 -19
-64 -3 -11 -7 -11 -15 -3 -9 9 -15 8 -26 -1 -11 -9 -76 -12 -236 -12 l-220 0
-9 42 c-16 82 -96 129 -175 105 -39 -12 -47 -6 -64 43 -12 38 -8 168 8 228 30
115 143 247 199 231 11 -3 56 -10 100 -15z m-556 -64 c10 -32 31 -65 56 -91
37 -36 40 -43 33 -75 -4 -18 -10 -56 -15 -82 l-8 -49 -47 37 c-27 20 -54 48
-62 63 -11 22 -66 208 -66 224 0 2 10 4 21 5 12 1 27 7 33 13 20 20 40 5 55
-45z m1540 -21 l-23 -25 -8 22 c-6 17 -3 28 14 46 23 24 23 24 32 3 7 -16 4
-26 -15 -46z m21 -59 c-14 -17 -50 -20 -50 -5 0 13 54 40 58 29 2 -5 -2 -16
-8 -24z m-1408 -51 c-4 -22 -2 -25 19 -22 15 2 24 9 23 19 -1 12 4 15 18 11
13 -3 17 -10 12 -21 -3 -9 -10 -65 -15 -126 -4 -60 -8 -111 -8 -112 -1 -1 -9
0 -18 3 -10 3 -25 8 -33 11 -13 4 -12 6 3 14 20 12 22 35 4 42 -17 6 -32 -3
-40 -23 -13 -36 -6 131 8 171 9 24 13 49 11 56 -3 7 1 10 8 7 8 -3 11 -15 8
-30z m1402 -17 c-13 -45 -48 -64 -60 -33 -9 23 12 51 41 54 23 2 25 -1 19 -21z
m-189 -27 c16 -7 14 -8 -12 -7 -17 1 -29 5 -26 10 5 9 12 8 38 -3z m140 -49
c10 -18 -17 -23 -33 -7 -15 15 -15 16 5 16 12 0 24 -4 28 -9z m-88 -48 c-3
-10 -5 -4 -5 12 0 17 2 24 5 18 2 -7 2 -21 0 -30z m-9 -45 c-19 -29 -56 -48
-76 -40 -9 3 -12 7 -6 8 5 1 21 5 36 8 15 3 30 15 33 26 3 11 11 20 17 20 6 0
4 -9 -4 -22z m-256 -149 c5 -4 -6 -16 -26 -28 -34 -22 -36 -22 -55 -4 -18 17
-18 19 -3 38 10 11 28 25 42 31 22 10 25 9 29 -10 1 -11 7 -24 13 -27z m-729
-11 c24 -24 28 -32 17 -36 -8 -2 -20 -11 -27 -19 -10 -13 -16 -13 -47 6 -29
18 -35 28 -33 52 2 25 6 29 30 29 19 0 40 -11 60 -32z m620 -105 c-26 -18 -30
-41 -8 -49 20 -8 9 -24 -15 -24 -12 0 -17 5 -14 13 3 8 -3 20 -12 28 -15 12
-12 15 22 30 49 22 55 22 27 2z m73 -32 c-11 -17 -26 -13 -20 4 4 8 0 23 -7
33 -7 9 -3 7 10 -4 13 -12 20 -27 17 -33z m-711 29 c3 -5 1 -10 -4 -10 -6 0
-11 5 -11 10 0 6 2 10 4 10 3 0 8 -4 11 -10z m87 -40 c-3 -24 -9 -30 -28 -30
-13 0 -24 5 -24 10 0 6 5 10 10 10 6 0 10 9 10 20 0 13 7 20 18 20 15 0 18 -6
14 -30z m310 15 c20 -8 11 -62 -11 -68 -14 -3 -16 1 -13 23 4 25 1 28 -32 32
-37 4 -41 -1 -37 -44 2 -14 -5 -18 -29 -18 -18 0 -29 4 -25 10 12 20 -15 50
-46 50 -29 0 -31 -2 -27 -30 4 -24 1 -30 -9 -25 -8 3 -18 5 -21 5 -4 0 -7 16
-7 35 l0 35 122 0 c67 0 128 -2 135 -5z m109 -22 c11 -31 -5 -29 -26 3 -16 24
-16 26 1 22 9 -1 20 -13 25 -25z" style="fill:#41b1f3"></path><path d="M1562 1305 c-19 -8 -32 -21 -32 -32 0 -13 -3 -14 -12 -5 -15 15 -68
-22 -68 -47 0 -23 -26 -46 -35 -31 -3 5 -17 10 -31 10 -20 0 -24 5 -24 29 0
56 -61 89 -90 50 l-18 -22 -25 26 c-13 15 -34 27 -46 27 -35 0 -91 -27 -86
-42 6 -17 -39 -68 -60 -68 -9 0 -23 -16 -32 -37 -14 -36 -14 -38 6 -51 22 -15
27 -51 12 -81 -14 -26 27 -82 54 -75 23 5 35 -3 51 -31 15 -27 54 -35 86 -17
23 13 31 14 52 3 21 -12 28 -11 54 8 22 15 29 27 25 41 -4 16 0 20 18 20 33 1
63 43 55 78 -6 26 -6 26 9 8 8 -11 13 -28 9 -38 -12 -40 51 -101 71 -68 8 13
42 -9 48 -32 8 -28 97 -21 97 8 0 19 19 27 35 14 10 -9 21 -7 45 5 17 9 33 21
34 28 19 69 31 97 42 101 15 6 19 63 6 82 -4 6 -17 16 -29 23 -16 8 -23 21
-23 40 0 31 -22 55 -58 64 -15 3 -25 0 -29 -9 -4 -11 -10 -11 -32 4 -43 30
-45 31 -79 17z m-363 -44 c9 -16 6 -20 -22 -25 -37 -8 -93 -55 -107 -91 -6
-16 -15 -23 -25 -19 -22 9 -18 33 8 44 39 16 90 68 84 84 -6 14 7 22 40 25 7
0 17 -8 22 -18z m417 0 l24 -19 -40 0 c-26 -1 -40 4 -40 12 0 30 22 33 56 7z
m-289 -31 c-2 -10 0 -26 5 -36 6 -12 0 -8 -16 9 -15 15 -34 27 -43 27 -11 0
-9 5 8 19 27 22 54 10 46 -19z m389 22 c6 -4 14 -23 17 -42 5 -28 4 -31 -4
-17 -6 11 -25 25 -43 33 -18 8 -24 13 -13 14 9 0 17 5 17 10 0 12 11 13 26 2z
m-206 -36 c0 -2 -8 -10 -17 -17 -16 -13 -17 -12 -4 4 13 16 21 21 21 13z
m-214 -40 c46 -46 48 -100 3 -150 -38 -44 -80 -53 -134 -31 -61 26 -75 42 -75
90 0 71 59 124 139 125 25 0 42 -9 67 -34z m358 20 c18 -7 43 -27 54 -43 18
-25 20 -36 12 -63 -11 -38 -45 -78 -76 -90 -23 -9 -88 5 -113 24 -23 17 -32
56 -25 107 4 28 9 47 12 44 3 -2 11 0 18 6 11 9 56 26 77 28 4 1 23 -5 41 -13z
m-254 -41 c0 -8 -5 -15 -11 -15 -8 0 -10 -18 -7 -55 3 -39 1 -59 -9 -66 -7 -6
-13 -10 -13 -8 -1 2 -2 39 -3 82 -2 74 -1 77 21 77 13 0 22 -6 22 -15z m62
-24 c-3 -27 -8 -38 -17 -35 -14 6 -9 40 8 62 13 17 13 17 9 -27z m326 2 c5
-36 -23 -34 -34 2 -10 31 -9 33 10 25 12 -4 22 -16 24 -27z m-308 -88 c0 -5
-5 -3 -10 5 -5 8 -10 20 -10 25 0 6 5 3 10 -5 5 -8 10 -19 10 -25z m-397 -33
c15 -17 15 -18 -3 -19 -22 -2 -34 12 -25 27 8 13 9 13 28 -8z m416 4 c8 -10 8
-16 -2 -25 -16 -13 -27 -5 -27 21 0 21 13 23 29 4z m237 -25 c-8 -13 -36 -15
-36 -3 0 4 5 13 12 20 14 14 34 0 24 -17z m-545 -47 c0 -5 -7 -10 -15 -12 -9
-2 -16 2 -16 9 0 6 -8 18 -17 25 -15 12 -13 12 15 1 18 -8 33 -18 33 -23z
m108 0 c-9 -11 -15 -12 -23 -4 -8 8 -7 13 4 20 20 12 33 1 19 -16z m321 11 c0
-8 -9 -15 -20 -15 -11 0 -20 7 -20 15 0 8 9 15 20 15 11 0 20 -7 20 -15z" style="fill:#41b1f3"></path><path d="M1176 1151 c-30 -20 -60 -76 -50 -92 10 -17 32 -9 38 16 8 30 71 64
88 47 6 -6 14 -28 17 -48 7 -44 28 -56 37 -20 7 30 0 56 -27 90 -25 31 -62 34
-103 7z" style="fill:#41b1f3"></path><path d="M1574 1159 c-25 -13 -54 -59 -54 -88 0 -30 8 -26 47 19 46 54 84 52
95 -5 6 -35 33 -24 31 13 -2 62 -58 90 -119 61z" style="fill:#41b1f3"></path><path d="M1367 913 c-4 -3 -7 -21 -7 -39 0 -25 7 -38 25 -50 50 -33 104 11 89
72 -8 32 -28 25 -34 -12 -3 -16 -10 -27 -15 -25 -6 2 -15 6 -22 8 -6 3 -10 10
-7 17 6 15 -19 39 -29 29z" style="fill:#41b1f3"></path><path d="M440 604 c-47 -10 -142 -47 -146 -58 -10 -31 -10 -75 1 -113 13 -42
13 -43 -11 -43 -64 0 -131 -52 -119 -92 22 -72 118 -141 230 -166 59 -14 612
-14 621 -1 2 5 -3 20 -12 34 -17 26 -17 26 9 21 14 -2 31 1 36 8 15 18 1 28
-17 13 -13 -10 -15 -9 -9 5 7 21 -17 37 -48 32 -17 -3 -17 0 5 16 14 11 21 20
15 21 -33 5 -43 3 -72 -8 -35 -13 -34 -14 -37 41 -1 10 -15 26 -33 36 -28 15
-30 19 -18 31 8 8 17 28 21 44 7 38 -31 99 -64 101 -12 1 -30 11 -39 23 -10
12 -42 28 -73 36 -59 16 -199 27 -240 19z m235 -49 l39 -17 -25 -14 c-30 -15
-201 -32 -272 -27 -27 2 -61 10 -75 17 l-27 14 56 16 c135 39 229 43 304 11z
m-170 -88 c65 -1 132 4 163 12 29 7 56 11 59 7 9 -9 -26 -82 -51 -105 -12 -11
-43 -30 -70 -42 -83 -36 -201 -9 -260 61 -14 17 -26 37 -26 43 0 7 -3 22 -6
34 -6 21 -5 21 38 6 27 -9 84 -15 153 -16z m261 -62 c-21 -16 -32 -13 -21 4 3
6 14 11 23 11 15 -1 15 -2 -2 -15z m-440 -114 c15 -14 30 -27 35 -27 5 -1 11
-3 14 -4 3 -1 8 -3 13 -4 14 -3 47 -25 37 -25 -5 0 -36 6 -67 13 -32 8 -58 12
-58 10 0 -2 -17 4 -39 15 -21 11 -42 17 -46 13 -5 -4 -5 -2 -2 5 4 6 1 13 -5
16 -19 7 5 29 45 43 28 10 33 9 40 -9 4 -11 19 -32 33 -46z m487 45 c17 -14
23 -27 10 -25 -20 3 -24 -2 -14 -15 9 -10 8 -15 -4 -19 -8 -4 -14 -1 -12 5 1
7 -2 12 -8 13 -5 0 -20 8 -33 17 l-23 16 28 10 c36 13 35 14 56 -2z m-252 -48
c61 14 82 15 74 2 -10 -17 -188 -30 -203 -15 -2 2 -1 8 2 13 4 7 19 6 41 -1
26 -7 49 -7 86 1z m221 -70 c-11 -11 -160 -47 -199 -48 -13 0 -23 4 -23 9 0 4
30 12 68 16 37 4 85 13 107 20 52 17 62 18 47 3z m-437 -14 c20 -8 35 -18 32
-21 -7 -6 -78 16 -91 28 -16 14 18 11 59 -7z" style="fill:#41b1f3"></path><path d="M1288 495 c-3 -3 -64 -12 -133 -21 -16 -2 -50 -6 -74 -9 -44 -6 -101
-37 -101 -56 0 -5 0 -11 0 -14 0 -3 2 -4 3 -2 2 1 11 -4 20 -11 8 -7 26 -15
39 -17 12 -3 34 -7 48 -10 116 -23 563 -23 719 0 19 3 42 12 52 21 10 9 22 13
27 10 5 -3 15 1 22 9 15 18 0 61 -22 63 -7 0 -26 3 -43 6 -16 3 -50 8 -75 11
-25 3 -69 9 -98 14 -50 8 -376 13 -384 6z" style="fill:#536f80"></path><path d="M1015 290 c-4 -6 -3 -16 3 -22 6 -6 12 -6 17 2 4 6 3 16 -3 22 -6 6
-12 6 -17 -2z" style="fill:#536f80"></path><path d="M1135 210 c-3 -5 2 -13 12 -18 21 -10 63 -2 66 13 2 13 -70 17 -78 5z" style="fill:#536f80"></path><path d="M1096 201 c-4 -5 -2 -12 3 -15 5 -4 12 -2 15 3 4 5 2 12 -3 15 -5 4
-12 2 -15 -3z" style="fill:#536f80"></path><path d="M1036 162 c-3 -6 1 -15 8 -21 8 -7 17 -8 20 -3 3 6 -1 15 -8 21 -8 7
-17 8 -20 3z" style="fill:#536f80"></path></g></svg>